<?xml version="1.0" standalone="no"?><!DOCTYPE svg PUBLIC "-//W3C//DTD SVG 1.1//EN" "http://www.w3.org/Graphics/SVG/1.1/DTD/svg11.dtd"><svg t="1711762111848" class="icon" viewBox="0 0 1024 1024" version="1.1" xmlns="http://www.w3.org/2000/svg" p-id="12211" xmlns:xlink="http://www.w3.org/1999/xlink" width="128" height="128"><path d="M259.584 549.376c9.216-9.216 9.216-24.064 0-33.28s-24.064-9.216-33.28 0c-77.312 77.312-77.312 203.776 0 281.088 9.216 9.216 24.064 9.216 33.28 0 9.216-9.216 9.216-24.064 0-33.28-58.88-58.88-58.88-155.648 0-214.528z" p-id="12212"></path><path d="M863.232 160.768c-111.616-111.616-293.376-111.616-404.992 0l-50.688 50.688-44.032 44.032-202.752 202.752c-111.616 111.616-111.616 293.376 0 404.992s293.376 111.616 404.992 0l202.752-202.752 44.032-44.032 50.688-50.688c112.128-111.616 112.128-293.376 0-404.992zM532.48 830.464c-93.696 93.696-245.76 93.696-338.944 0s-93.696-245.76 0-338.944l179.712-179.712c19.456 79.36 59.904 155.136 121.856 217.088 61.952 61.952 137.216 102.912 217.088 121.856L532.48 830.464z m-4.096-334.848C465.408 432.128 427.008 353.792 413.184 271.872L491.52 193.536c93.696-93.696 245.76-93.696 338.944 0s93.696 245.76 0 338.944l-78.336 78.336c-81.92-13.824-160.256-52.224-223.744-115.2z" p-id="12213"></path></svg>