<?xml version="1.0" standalone="no"?><!DOCTYPE svg PUBLIC "-//W3C//DTD SVG 1.1//EN" "http://www.w3.org/Graphics/SVG/1.1/DTD/svg11.dtd"><svg t="1711762134409" class="icon" viewBox="0 0 1024 1024" version="1.1" xmlns="http://www.w3.org/2000/svg" p-id="14107" xmlns:xlink="http://www.w3.org/1999/xlink" width="128" height="128"><path d="M852.3 688.4v-26c0-75.6-57.1-133.8-131.2-133.8H704c-74.1 0-136.8 64-136.8 139.6v87.3c0 29.1-22.8 58.2-57.1 58.2h-39.9c-13.8-0.1-27-5.7-36.6-15.5-9.6-9.8-15-23.1-14.8-36.9V618.1c119-22.8 212.4-123.6 222.4-251.1l17.2-136c0-64-51.4-116.3-114.1-116.3h-34.2c-9.8-7.6-21.8-11.7-34.2-11.7-31.5 0-57.1 26.1-57.1 58.2 0 32.2 25.5 58.2 57.1 58.2 18.6 0 35.2-9.1 45.6-23.3h22.8c17.1 0 34.2 17.5 34.2 34.9l-17.1 130.1C550 465.8 470.2 541.4 367.5 541.4c-91.3 0-165.4-69.8-171.1-157l-17-153.4c0-17.4 17.1-34.9 34.2-34.9h22c10.4 10.8 24.8 17.5 40.7 17.5 31.5 0 57.1-26.1 57.1-58.2 0-32.2-25.5-58.2-57.1-58.2-16 0-30.4 6.7-40.7 17.5h-22c-62.7 0-114.1 52.3-114.1 122.1l17.1 153.3c10.6 124 104.3 218 222.4 231.1v140c0 75.6 57 133.8 131.2 133.8h34.2c79.8 0 142.6-64 142.6-139.6v-87.3c0-29.1 22.8-58.2 57-58.2h17.1c28.5 0 51.3 23.3 51.3 52.3v22.1c-50.6 14.3-85.5 59.9-85.5 117.5 0 69.8 51.3 122.1 119.8 122.1 68.4 0 119.8-52.3 119.8-122.1 0-52.9-29.8-95.9-74.2-113.4z m-45.6 154.4c-22.8 0-39.9-17.5-39.9-40.7 0-23.3 17.1-40.8 39.9-40.8 22.8 0 39.9 17.5 39.9 40.8 0 23.2-17.1 40.7-39.9 40.7z m0 0" fill="#333333" p-id="14108"></path></svg>