<?xml version="1.0" encoding="UTF-8"?>
<svg width="128px" height="128px" viewBox="0 0 128 128" version="1.1" xmlns="http://www.w3.org/2000/svg" xmlns:xlink="http://www.w3.org/1999/xlink">
    <title>编组 3</title>
    <g id="页面-1" stroke="none" stroke-width="1" fill="none" fill-rule="evenodd">
        <g id="icon" transform="translate(-333.000000, -224.000000)" fill="#909090">
            <g id="编组-3" transform="translate(333.000000, 224.000000)">
                <path d="M85.9971296,42.3507743 C85.8098361,53.7869603 76.4808284,63 65,63 C53.4020203,63 44,53.5979797 44,42 L44,42 L43.9777101,42.0007324 C43.9925173,42.3319685 44,42.6651104 44,43 C44,55.1502645 34.1502645,65 22,65 C9.8497355,65 0,55.1502645 0,43 C0,42.6651104 0.00748266541,42.3319685 0.0222899264,42.0007324 L0,42 L0.0265860881,41.9088786 C0.196302751,38.4340219 1.17221929,35.170957 2.77125649,32.3027631 L12,0 L116,0 L124.827891,30.8966093 C126.838307,34.1177647 128,37.9232184 128,42 C128,53.5979797 118.59798,63 107,63 C95.4020203,63 86,53.5979797 86,42 L86,42 Z" id="形状结合"></path>
                <path d="M19,128 C15.6862915,128 13,125.313708 13,122 L13,80 C13,76.6862915 15.6862915,74 19,74 C22.3137085,74 25,76.6862915 25,80 L25,116 L103,116 L103,80 C103,76.6862915 105.686292,74 109,74 C112.313708,74 115,76.6862915 115,80 L115,122 L115,122 C115,125.238397 112.434425,127.877572 109.224938,127.995862 L109,128 L109,128 L19,128 Z" id="形状结合"></path>
                <path d="M64,69 C67.3137085,69 70,71.6862915 70,75 L70,83 L78,83 C81.3137085,83 84,85.6862915 84,89 C84,92.3137085 81.3137085,95 78,95 L70,95 L70,103 C70,106.313708 67.3137085,109 64,109 C60.6862915,109 58,106.313708 58,103 L58,95 L50,95 C46.6862915,95 44,92.3137085 44,89 C44,85.6862915 46.6862915,83 50,83 L58,83 L58,75 C58,71.6862915 60.6862915,69 64,69 Z" id="形状结合"></path>
            </g>
        </g>
    </g>
</svg>