<?xml version="1.0" encoding="UTF-8"?>
<svg width="128px" height="128px" viewBox="0 0 128 128" version="1.1" xmlns="http://www.w3.org/2000/svg" xmlns:xlink="http://www.w3.org/1999/xlink">
    <title>编组 7</title>
    <g id="页面-1" stroke="none" stroke-width="1" fill="none" fill-rule="evenodd">
        <g id="icon" transform="translate(-1523.000000, -236.000000)">
            <path d="M1422,214 C1428.62742,214 1434,219.372583 1434,226 L1434,286 L1494,286 C1500.62742,286 1506,291.372583 1506,298 C1506,304.627417 1500.62742,310 1494,310 L1434,310 L1434,370 C1434,376.627417 1428.62742,382 1422,382 C1415.37258,382 1410,376.627417 1410,370 L1410,310 L1350,310 C1343.37258,310 1338,304.627417 1338,298 C1338,291.372583 1343.37258,286 1350,286 L1410,286 L1410,226 C1410,219.372583 1415.37258,214 1422,214 Z" id="形状结合" fill="#999999" transform="translate(1422.000000, 298.000000) rotate(45.000000) translate(-1422.000000, -298.000000) "></path>
            <g id="编组-7" transform="translate(1523.000000, 236.000000)" stroke-width="10">
                <circle id="椭圆形" stroke="#999999" cx="64" cy="33" r="28"></circle>
                <path d="M64,61 C80.3001253,61 95.0952692,66.2042762 105.866377,74.4509055 C116.297395,82.4371535 123,93.3120923 123,105 C123,108.804429 122.303534,111.846232 120.8219,114.225627 C119.302623,116.665474 116.97979,118.328916 114.111832,119.552872 C104.802406,123.52585 90.4707598,123.191402 74.0201459,123.054833 C70.7550953,123.027727 67.4085361,123 63.9958993,123.000002 L63.9958993,123.000002 L62.9335771,123.000875 C59.8929707,123.00578 56.9037171,123.03056 53.9798541,123.054833 C37.5292402,123.191402 23.1975935,123.52585 13.8881677,119.552872 C11.0202105,118.328916 8.6973772,116.665474 7.17809995,114.225627 C5.69646593,111.846232 5,108.804429 5,105 C5,93.3120923 11.7026054,82.4371535 22.1336232,74.4509055 C32.9047308,66.2042762 47.6998747,61 64,61 Z" id="椭圆形" stroke="#979797"></path>
            </g>
        </g>
    </g>
</svg>