<?xml version="1.0" encoding="UTF-8"?>
<svg width="116px" height="128px" viewBox="0 0 116 128" version="1.1" xmlns="http://www.w3.org/2000/svg" xmlns:xlink="http://www.w3.org/1999/xlink">
    <title>形状结合</title>
    <g id="页面-1" stroke="none" stroke-width="1" fill="none" fill-rule="evenodd">
        <g id="icon" transform="translate(-202.000000, -736.000000)" fill="#999999">
            <path d="M267.486256,739.352525 L267.736544,739.594408 L314.405592,786.263456 C318.310835,790.168699 318.310835,796.500349 314.405592,800.405592 C310.571353,804.23983 304.398139,804.309544 300.478846,800.614732 L300.263456,800.405592 L268.999476,769.142476 L269,855 C269,859.970563 264.970563,864 260,864 C255.029437,864 251,859.970563 251,855 L250.999476,769.142476 L219.736544,800.405592 C215.831301,804.310835 209.499651,804.310835 205.594408,800.405592 C201.689165,796.500349 201.689165,790.168699 205.594408,786.263456 L252.263456,739.594408 C254.385445,737.47242 257.22383,736.503454 260.000076,736.687512 L260.246793,736.67419 C262.83583,736.566367 265.458778,737.459145 267.486256,739.352525 Z" id="形状结合"></path>
        </g>
    </g>
</svg>