<?xml version="1.0" encoding="UTF-8"?>
<svg width="128px" height="80px" viewBox="0 0 128 80" version="1.1" xmlns="http://www.w3.org/2000/svg" xmlns:xlink="http://www.w3.org/1999/xlink">
    <title>编组 17</title>
    <g id="页面-1" stroke="none" stroke-width="1" fill="none" fill-rule="evenodd">
        <g id="icon" transform="translate(-1227.000000, -606.000000)" fill="#999999">
            <g id="编组-17" transform="translate(1230.000000, 606.000000)">
                <path d="M117.400399,0 C120.161823,0 122.400399,2.23857625 122.400399,5 C122.400399,5.54390556 122.313553,6.06752702 122.15297,6.55775384 L122.333773,6.58516823 C114.0774,32.3803007 89.9037278,51.0555924 61.3682078,51.0555924 C32.8301024,51.0555924 8.6546355,32.3769165 0.40039919,6.5781567 L0.642275544,6.54069776 C0.485244641,6.05538856 0.40039919,5.53760264 0.40039919,5 C0.40039919,2.23857625 2.63897544,0 5.40039919,0 C8.16182294,0 10.4003992,2.23857625 10.4003992,5 C10.4003992,5.00100929 10.4003989,5.00201851 10.4003983,5.00302767 L10.4212959,5 C17.818632,26.0024971 37.8355005,41.0555924 61.3682078,41.0555924 C84.889661,41.0555924 104.898637,26.0168914 112.304498,5.03012814 L112.401399,5.045 L112.400399,5 C112.400399,2.3112453 114.522706,0.118181885 117.18351,0.00461951385 Z" id="形状结合"></path>
                <rect id="矩形" x="56.4003992" y="44" width="10" height="36" rx="5"></rect>
                <rect id="矩形" transform="translate(15.400399, 42.000000) rotate(40.000000) translate(-15.400399, -42.000000) " x="10.4003992" y="24" width="10" height="36" rx="5"></rect>
                <rect id="矩形" transform="translate(107.400399, 42.000000) scale(-1, 1) rotate(40.000000) translate(-107.400399, -42.000000) " x="102.400399" y="24" width="10" height="36" rx="5"></rect>
            </g>
        </g>
    </g>
</svg>