<?xml version="1.0" encoding="UTF-8"?>
<svg width="128px" height="128px" viewBox="0 0 128 128" version="1.1" xmlns="http://www.w3.org/2000/svg" xmlns:xlink="http://www.w3.org/1999/xlink">
    <title>编组 26</title>
    <g id="页面-1" stroke="none" stroke-width="1" fill="none" fill-rule="evenodd">
        <g id="icon" transform="translate(-1130.000000, -54.000000)">
            <g id="编组-25" transform="translate(1130.000000, 54.000000)">
                <path d="M39,54 C44.5228475,54 49,49.5228475 49,44 C49,38.4771525 44.5228475,34 39,34 C33.4771525,34 29,38.4771525 29,44 C29,49.5228475 33.4771525,54 39,54 Z M89,54 C94.5228475,54 99,49.5228475 99,44 C99,38.4771525 94.5228475,34 89,34 C83.4771525,34 79,38.4771525 79,44 C79,49.5228475 83.4771525,54 89,54 Z" id="形状结合" fill="#3F4552"></path>
                <circle id="椭圆形" stroke="#3F4552" stroke-width="10" cx="64" cy="64" r="59"></circle>
                <path d="M94,61 C96.7614237,61 99,62.790861 99,65 L99,65 C99,84.3299662 83.3299662,100 64,100 C44.6700338,100 29,84.3299662 29,65 L29.0054422,64.8117016 C29.1283455,62.689988 31.3174741,61 34,61 C36.7614237,61 39,62.790861 39,65 L39,65 C39,78.8071187 50.1928813,90 64,90 C77.8071187,90 89,78.8071187 89,65 L89.0054422,64.8117016 C89.1283455,62.689988 91.3174741,61 94,61 Z" id="形状结合" fill="#3F4552"></path>
            </g>
        </g>
    </g>
</svg>