<?xml version="1.0" encoding="UTF-8"?>
<svg width="128px" height="128px" viewBox="0 0 128 128" version="1.1" xmlns="http://www.w3.org/2000/svg" xmlns:xlink="http://www.w3.org/1999/xlink">
    <title>形状结合</title>
    <g id="页面-1" stroke="none" stroke-width="1" fill="none" fill-rule="evenodd">
        <g id="icon" transform="translate(-808.000000, -54.000000)" fill="#FFFFFF">
            <path d="M928,55 C932.418278,55 936,58.581722 936,63 L936,149 C936,153.418278 932.418278,157 928,157 L864.8,157 L828,181 L824.8,157 L816,157 C811.581722,157 808,153.418278 808,149 L808,63 C808,58.581722 811.581722,55 816,55 L928,55 Z M836,92 C829.372583,92 824,97.372583 824,104 C824,110.627417 829.372583,116 836,116 C842.627417,116 848,110.627417 848,104 C848,97.372583 842.627417,92 836,92 Z M872,92 C865.372583,92 860,97.372583 860,104 C860,110.627417 865.372583,116 872,116 C878.627417,116 884,110.627417 884,104 C884,97.372583 878.627417,92 872,92 Z M908,92 C901.372583,92 896,97.372583 896,104 C896,110.627417 901.372583,116 908,116 C914.627417,116 920,110.627417 920,104 C920,97.372583 914.627417,92 908,92 Z" id="形状结合"></path>
        </g>
    </g>
</svg>