<?xml version="1.0" encoding="UTF-8"?>
<svg width="128px" height="126px" viewBox="0 0 128 126" version="1.1" xmlns="http://www.w3.org/2000/svg" xmlns:xlink="http://www.w3.org/1999/xlink">
    <title>编组 11</title>
    <g id="页面-1" stroke="none" stroke-width="1" fill="none" fill-rule="evenodd">
        <g id="icon" transform="translate(-1659.000000, -409.000000)">
            <g id="编组-11" transform="translate(1659.000000, 409.000000)">
                <rect id="矩形" fill="#979797" x="0" y="18" width="128" height="10" rx="5"></rect>
                <path d="M94,5 C94.8284271,5 95.5784271,5.33578644 96.1213203,5.87867966 C96.6642136,6.42157288 97,7.17157288 97,8 L97,8 L97,23 L29,23 L29,8 C29,7.17157288 29.3357864,6.42157288 29.8786797,5.87867966 C30.4215729,5.33578644 31.1715729,5 32,5 L32,5 Z" id="矩形" stroke="#979797" stroke-width="10"></path>
                <path d="M27,116 L101,116 L101,42 L111,42 L111,118 C111,122.418278 107.418278,126 103,126 L25,126 C20.581722,126 17,122.418278 17,118 L17,42 L27,42 L27,116 Z" id="形状结合" fill="#979797"></path>
                <path d="M50,42 C52.7614237,42 55,44.2385763 55,47 L55,97 C55,99.7614237 52.7614237,102 50,102 C47.2385763,102 45,99.7614237 45,97 L45,47 C45,44.2385763 47.2385763,42 50,42 Z M78,42 C80.7614237,42 83,44.2385763 83,47 L83,97 C83,99.7614237 80.7614237,102 78,102 C75.2385763,102 73,99.7614237 73,97 L73,47 C73,44.2385763 75.2385763,42 78,42 Z" id="形状结合" fill="#979797"></path>
            </g>
        </g>
    </g>
</svg>