<?xml version="1.0" encoding="UTF-8"?>
<svg width="128px" height="128px" viewBox="0 0 128 128" version="1.1" xmlns="http://www.w3.org/2000/svg" xmlns:xlink="http://www.w3.org/1999/xlink">
    <title>编组 30</title>
    <defs>
        <linearGradient x1="50%" y1="0%" x2="50%" y2="100%" id="linearGradient-1">
            <stop stop-color="#6634B3" offset="0%"></stop>
            <stop stop-color="#2D164F" offset="100%"></stop>
        </linearGradient>
    </defs>
    <g id="页面-1" stroke="none" stroke-width="1" fill="none" fill-rule="evenodd">
        <g id="icon" transform="translate(-968.000000, -734.000000)">
            <g id="编组-30" transform="translate(968.000000, 734.000000)">
                <rect id="矩形" fill="url(#linearGradient-1)" x="0" y="0" width="128" height="128" rx="12"></rect>
                <g id="编组-29" transform="translate(17.000000, 19.000000)" fill="#FFFFFF">
                    <rect id="矩形" x="13.5777778" y="35.5111111" width="41.7777778" height="8.35555556" rx="4.17777778"></rect>
                    <path d="M16.1888889,45.4333333 L39.1666667,45.4333333 C41.4739896,45.4333333 43.3444444,47.3037882 43.3444444,49.6111111 C43.3444444,51.9184341 41.4739896,53.7888889 39.1666667,53.7888889 L16.1888889,53.7888889 C13.8815659,53.7888889 12.0111111,51.9184341 12.0111111,49.6111111 C12.0111111,47.3037882 13.8815659,45.4333333 16.1888889,45.4333333 Z" id="矩形" transform="translate(27.677778, 49.611111) rotate(-45.000000) translate(-27.677778, -49.611111) "></path>
                    <path d="M20.8888889,57.9666667 L48.0444444,57.9666667 C50.3517674,57.9666667 52.2222222,59.8371215 52.2222222,62.1444444 C52.2222222,64.4517674 50.3517674,66.3222222 48.0444444,66.3222222 L20.8888889,66.3222222 C18.5815659,66.3222222 16.7111111,64.4517674 16.7111111,62.1444444 C16.7111111,59.8371215 18.5815659,57.9666667 20.8888889,57.9666667 Z" id="矩形" transform="translate(34.466667, 62.144444) rotate(-45.000000) translate(-34.466667, -62.144444) "></path>
                    <path d="M33.4222222,42.3 L45.9555556,42.3 C48.2628785,42.3 50.1333333,44.1704548 50.1333333,46.4777778 C50.1333333,48.7851007 48.2628785,50.6555556 45.9555556,50.6555556 L33.4222222,50.6555556 C31.1148993,50.6555556 29.2444444,48.7851007 29.2444444,46.4777778 C29.2444444,44.1704548 31.1148993,42.3 33.4222222,42.3 Z" id="矩形" transform="translate(39.688889, 46.477778) scale(-1, 1) rotate(-45.000000) translate(-39.688889, -46.477778) "></path>
                    <g id="编组" transform="translate(76.766667, 56.922222) scale(1, -1) translate(-76.766667, -56.922222) translate(61.100000, 37.600000)">
                        <path d="M27.3544974,0 C29.5519478,-4.03665096e-16 31.3333333,1.78138555 31.3333333,3.97883598 L31.3333333,22.8783069 C31.3333333,24.0637927 30.8148766,25.1281866 29.9923344,25.8571171 C29.9394611,25.9168195 29.8841082,25.9756198 29.8266291,26.0330989 L18.5727815,37.2869466 C17.7722533,38.0874748 16.7154745,38.475574 15.6664838,38.4512442 C14.6924202,38.4737111 13.7118385,38.1406757 12.9358886,37.4521481 L12.7605518,37.2869466 L1.50670424,26.0330989 C1.44922509,25.9756198 1.39387219,25.9168195 1.34064556,25.856796 C0.518456723,25.1281866 1.45180147e-16,24.0637927 0,22.8783069 L0,3.97883598 C-7.13199274e-16,1.78138555 1.78138555,4.03665096e-16 3.97883598,0 C6.17628641,-4.03665096e-16 7.95767196,1.78138555 7.95767196,3.97883598 L7.957,21.23 L15.666,28.939 L23.375,21.23 L23.3756614,3.97883598 C23.3756614,1.78138555 25.1570469,4.03665096e-16 27.3544974,0 Z" id="形状结合"></path>
                    </g>
                    <circle id="椭圆形" cx="4.17777778" cy="7.31111111" r="4.17777778"></circle>
                    <rect id="矩形" x="0" y="19.3222222" width="8.35555556" height="71.0222222" rx="4.17777778"></rect>
                    <path d="M47,39.1666667 C49.307323,39.1666667 51.1777778,41.0371215 51.1777778,43.3444444 L51.1777778,128.988889 C51.1777778,131.296212 49.307323,133.166667 47,133.166667 C44.692677,133.166667 42.8222222,131.296212 42.8222222,128.988889 L42.8222222,43.3444444 C42.8222222,41.0371215 44.692677,39.1666667 47,39.1666667 Z" id="矩形" transform="translate(47.000000, 86.166667) rotate(90.000000) translate(-47.000000, -86.166667) "></path>
                    <path d="M76.7666667,0 C85.4191277,0 92.4333333,7.01420559 92.4333333,15.6666667 C92.4333333,24.3191277 85.4191277,31.3333333 76.7666667,31.3333333 C68.1142056,31.3333333 61.1,24.3191277 61.1,15.6666667 C61.1,7.01420559 68.1142056,0 76.7666667,0 Z M76.7666667,8.35555556 C72.7288515,8.35555556 69.4555556,11.6288515 69.4555556,15.6666667 C69.4555556,19.7044818 72.7288515,22.9777778 76.7666667,22.9777778 C80.8044818,22.9777778 84.0777778,19.7044818 84.0777778,15.6666667 C84.0777778,11.6288515 80.8044818,8.35555556 76.7666667,8.35555556 Z" id="形状结合"></path>
                    <path d="M34.4666667,0 C43.1191277,0 50.1333333,7.01420559 50.1333333,15.6666667 C50.1333333,24.3191277 43.1191277,31.3333333 34.4666667,31.3333333 C25.8142056,31.3333333 18.8,24.3191277 18.8,15.6666667 C18.8,7.01420559 25.8142056,0 34.4666667,0 Z M34.4666667,8.35555556 C30.4288515,8.35555556 27.1555556,11.6288515 27.1555556,15.6666667 C27.1555556,19.7044818 30.4288515,22.9777778 34.4666667,22.9777778 C38.5044818,22.9777778 41.7777778,19.7044818 41.7777778,15.6666667 C41.7777778,11.6288515 38.5044818,8.35555556 34.4666667,8.35555556 Z" id="形状结合"></path>
                </g>
            </g>
        </g>
    </g>
</svg>