<?xml version="1.0" encoding="UTF-8"?>
<svg width="116px" height="128px" viewBox="0 0 116 128" version="1.1" xmlns="http://www.w3.org/2000/svg" xmlns:xlink="http://www.w3.org/1999/xlink">
    <title>形状结合</title>
    <g id="页面-1" stroke="none" stroke-width="1" fill="none" fill-rule="evenodd">
        <g id="icon" transform="translate(-356.000000, -736.000000)" fill="#999999">
            <path d="M421.486256,739.352525 L421.736544,739.594408 L468.405592,786.263456 C472.310835,790.168699 472.310835,796.500349 468.405592,800.405592 C464.571353,804.23983 458.398139,804.309544 454.478846,800.614732 L454.263456,800.405592 L422.999476,769.142476 L423,855 C423,859.970563 418.970563,864 414,864 C409.029437,864 405,859.970563 405,855 L404.999476,769.142476 L373.736544,800.405592 C369.831301,804.310835 363.499651,804.310835 359.594408,800.405592 C355.689165,796.500349 355.689165,790.168699 359.594408,786.263456 L406.263456,739.594408 C408.385445,737.47242 411.22383,736.503454 414.000076,736.687512 L414.246793,736.67419 C416.83583,736.566367 419.458778,737.459145 421.486256,739.352525 Z" id="形状结合" transform="translate(414.000000, 800.332738) scale(1, -1) translate(-414.000000, -800.332738) "></path>
        </g>
    </g>
</svg>