<?xml version="1.0" encoding="UTF-8"?>
<svg width="128px" height="128px" viewBox="0 0 128 128" version="1.1" xmlns="http://www.w3.org/2000/svg" xmlns:xlink="http://www.w3.org/1999/xlink">
    <title>编组 8</title>
    <g id="页面-1" stroke="none" stroke-width="1" fill="none" fill-rule="evenodd">
        <g id="icon" transform="translate(-1495.000000, -56.000000)">
            <g id="编组-8" transform="translate(1495.000000, 63.000000)">
                <rect id="矩形" stroke="#3F4552" stroke-width="10" x="5" y="5" width="118" height="102" rx="7.5"></rect>
                <rect id="矩形" fill="#3F4552" x="21" y="28" width="56" height="56" rx="7.5"></rect>
                <path d="M85,38 L104.172394,29.2852754 C105.177957,28.8282013 106.363659,29.2728394 106.820733,30.2784025 C106.938874,30.5383137 107,30.8205066 107,31.1060084 L107,80.8939916 C107,81.9985611 106.104569,82.8939916 105,82.8939916 C104.714498,82.8939916 104.432305,82.8328661 104.172394,82.7147246 L85,74 L85,74 L85,38 Z" id="矩形" fill="#3F4552"></path>
            </g>
            <path d="M1422,214 C1428.62742,214 1434,219.372583 1434,226 L1434,286 L1494,286 C1500.62742,286 1506,291.372583 1506,298 C1506,304.627417 1500.62742,310 1494,310 L1434,310 L1434,370 C1434,376.627417 1428.62742,382 1422,382 C1415.37258,382 1410,376.627417 1410,370 L1410,310 L1350,310 C1343.37258,310 1338,304.627417 1338,298 C1338,291.372583 1343.37258,286 1350,286 L1410,286 L1410,226 C1410,219.372583 1415.37258,214 1422,214 Z" id="形状结合" fill="#999999" transform="translate(1422.000000, 298.000000) rotate(45.000000) translate(-1422.000000, -298.000000) "></path>
        </g>
    </g>
</svg>