<?xml version="1.0" encoding="UTF-8"?>
<svg width="128px" height="126px" viewBox="0 0 128 126" version="1.1" xmlns="http://www.w3.org/2000/svg" xmlns:xlink="http://www.w3.org/1999/xlink">
    <title>编组 12</title>
    <g id="页面-1" stroke="none" stroke-width="1" fill="none" fill-rule="evenodd">
        <g id="icon" transform="translate(-1517.000000, -411.000000)">
            <path d="M1422,214 C1428.62742,214 1434,219.372583 1434,226 L1434,286 L1494,286 C1500.62742,286 1506,291.372583 1506,298 C1506,304.627417 1500.62742,310 1494,310 L1434,310 L1434,370 C1434,376.627417 1428.62742,382 1422,382 C1415.37258,382 1410,376.627417 1410,370 L1410,310 L1350,310 C1343.37258,310 1338,304.627417 1338,298 C1338,291.372583 1343.37258,286 1350,286 L1410,286 L1410,226 C1410,219.372583 1415.37258,214 1422,214 Z" id="形状结合" fill="#999999" transform="translate(1422.000000, 298.000000) rotate(45.000000) translate(-1422.000000, -298.000000) "></path>
            <g id="编组-12" transform="translate(1517.000000, 411.000000)">
                <path d="M35,83 L51,83 C53.209139,83 55,84.790861 55,87 L55,97 C55,99.209139 53.209139,101 51,101 L35,101 C32.790861,101 31,99.209139 31,97 L31,87 C31,84.790861 32.790861,83 35,83 Z M77,83 L93,83 C95.209139,83 97,84.790861 97,87 L97,97 C97,99.209139 95.209139,101 93,101 L77,101 C74.790861,101 73,99.209139 73,97 L73,87 C73,84.790861 74.790861,83 77,83 Z" id="形状结合" fill="#979797"></path>
                <path d="M39,0 C42.3137085,-6.08718376e-16 45,2.6862915 45,6 L45,36 C45,39.3137085 42.3137085,42 39,42 C35.6862915,42 33,39.3137085 33,36 L33,6 C33,2.6862915 35.6862915,6.08718376e-16 39,0 Z M89,0 C92.3137085,-6.08718376e-16 95,2.6862915 95,6 L95,36 C95,39.3137085 92.3137085,42 89,42 C85.6862915,42 83,39.3137085 83,36 L83,6 C83,2.6862915 85.6862915,6.08718376e-16 89,0 Z" id="形状结合" fill="#979797"></path>
                <path d="M35,53 L51,53 C53.209139,53 55,54.790861 55,57 L55,67 C55,69.209139 53.209139,71 51,71 L35,71 C32.790861,71 31,69.209139 31,67 L31,57 C31,54.790861 32.790861,53 35,53 Z M77,53 L93,53 C95.209139,53 97,54.790861 97,57 L97,67 C97,69.209139 95.209139,71 93,71 L77,71 C74.790861,71 73,69.209139 73,67 L73,57 C73,54.790861 74.790861,53 77,53 Z" id="形状结合" fill="#979797"></path>
                <rect id="矩形" stroke="#979797" stroke-width="10" x="5" y="23" width="118" height="98" rx="8"></rect>
            </g>
        </g>
    </g>
</svg>