<?xml version="1.0" encoding="UTF-8"?>
<svg width="128px" height="109px" viewBox="0 0 128 109" version="1.1" xmlns="http://www.w3.org/2000/svg" xmlns:xlink="http://www.w3.org/1999/xlink">
    <title>形状结合</title>
    <defs>
        <linearGradient x1="96.391453%" y1="15.7288664%" x2="3.66843478%" y2="83.8227591%" id="linearGradient-1">
            <stop stop-color="#D963F4" offset="0%"></stop>
            <stop stop-color="#A152FA" offset="100%"></stop>
        </linearGradient>
    </defs>
    <g id="页面-1" stroke="none" stroke-width="1" fill="none" fill-rule="evenodd">
        <g id="icon" transform="translate(-207.000000, -592.000000)" fill="url(#linearGradient-1)">
            <path d="M217,592 L325,592 C330.522847,592 335,596.477153 335,602 C335,607.522847 330.522847,612 325,612 L217,612 C211.477153,612 207,607.522847 207,602 C207,596.477153 211.477153,592 217,592 Z M217,636.5 L325,636.5 C330.522847,636.5 335,640.977153 335,646.5 C335,652.022847 330.522847,656.5 325,656.5 L217,656.5 C211.477153,656.5 207,652.022847 207,646.5 C207,640.977153 211.477153,636.5 217,636.5 Z M217,681 L325,681 C330.522847,681 335,685.477153 335,691 C335,696.522847 330.522847,701 325,701 L217,701 C211.477153,701 207,696.522847 207,691 C207,685.477153 211.477153,681 217,681 Z" id="形状结合"></path>
        </g>
    </g>
</svg>