<?xml version="1.0" encoding="UTF-8"?>
<svg width="128px" height="130px" viewBox="0 0 128 130" version="1.1" xmlns="http://www.w3.org/2000/svg" xmlns:xlink="http://www.w3.org/1999/xlink">
    <title>编组 2</title>
    <g id="页面-1" stroke="none" stroke-width="1" fill="none" fill-rule="evenodd">
        <g id="icon" transform="translate(-481.000000, -53.000000)" fill="#FFFFFF">
            <g id="编组-2" transform="translate(482.000000, 55.000000)">
                <path d="M84.5706961,25.0004754 C81.321226,16.2416336 72.8895188,10 63,10 C53.1104812,10 44.678774,16.2416336 41.4293039,25.0004754 L84.5706961,25.0004754 Z M63,36 C56.372583,36 51,41.372583 51,48 C51,54.627417 56.372583,60 63,60 C69.627417,60 75,54.627417 75,48 C75,41.372583 69.627417,36 63,36 Z M63,0 C78.4667344,0 91.4482637,10.6404281 95.0237691,25.0004656 L118,25 C122.418278,25 126,28.581722 126,33 L126,75 C126,79.418278 122.418278,83 118,83 L8,83 C3.581722,83 5.41083001e-16,79.418278 0,75 L0,33 C-5.41083001e-16,28.581722 3.581722,25 8,25 L30.9762309,25.0004656 C34.5517363,10.6404281 47.5332656,0 63,0 Z" id="形状结合"></path>
                <rect id="矩形" x="7" y="90" width="112" height="36" rx="8"></rect>
            </g>
        </g>
    </g>
</svg>