<?xml version="1.0" encoding="UTF-8"?>
<svg width="126px" height="98px" viewBox="0 0 126 98" version="1.1" xmlns="http://www.w3.org/2000/svg" xmlns:xlink="http://www.w3.org/1999/xlink">
    <title>形状结合</title>
    <g id="页面-1" stroke="none" stroke-width="1" fill="none" fill-rule="evenodd">
        <g id="icon" transform="translate(-1311.000000, -436.000000)" fill="#FFFFFF">
            <path d="M1365,436 L1383,436 C1388.52285,436 1393,440.477153 1393,446 C1393,451.522847 1388.52285,456 1383,456 L1365,456 C1359.47715,456 1355,451.522847 1355,446 C1355,440.477153 1359.47715,436 1365,436 Z M1365,462 L1383,462 C1388.52285,462 1393,466.477153 1393,472 C1393,477.522847 1388.52285,482 1383,482 L1365,482 C1359.47715,482 1355,477.522847 1355,472 C1355,466.477153 1359.47715,462 1365,462 Z M1409,488 L1427,488 C1432.52285,488 1437,492.477153 1437,498 C1437,503.522847 1432.52285,508 1427,508 L1409,508 C1403.47715,508 1399,503.522847 1399,498 C1399,492.477153 1403.47715,488 1409,488 Z M1409,514 L1427,514 C1432.52285,514 1437,518.477153 1437,524 C1437,529.522847 1432.52285,534 1427,534 L1409,534 C1403.47715,534 1399,529.522847 1399,524 C1399,518.477153 1403.47715,514 1409,514 Z M1365,488 L1383,488 C1388.52285,488 1393,492.477153 1393,498 C1393,503.522847 1388.52285,508 1383,508 L1365,508 C1359.47715,508 1355,503.522847 1355,498 C1355,492.477153 1359.47715,488 1365,488 Z M1321,462 L1339,462 C1344.52285,462 1349,466.477153 1349,472 C1349,477.522847 1344.52285,482 1339,482 L1321,482 C1315.47715,482 1311,477.522847 1311,472 C1311,466.477153 1315.47715,462 1321,462 Z M1321,488 L1339,488 C1344.52285,488 1349,492.477153 1349,498 C1349,503.522847 1344.52285,508 1339,508 L1321,508 C1315.47715,508 1311,503.522847 1311,498 C1311,492.477153 1315.47715,488 1321,488 Z M1321,514 L1339,514 C1344.52285,514 1349,518.477153 1349,524 C1349,529.522847 1344.52285,534 1339,534 L1321,534 C1315.47715,534 1311,529.522847 1311,524 C1311,518.477153 1315.47715,514 1321,514 Z M1365,514 L1383,514 C1388.52285,514 1393,518.477153 1393,524 C1393,529.522847 1388.52285,534 1383,534 L1365,534 C1359.47715,534 1355,529.522847 1355,524 C1355,518.477153 1359.47715,514 1365,514 Z" id="形状结合"></path>
        </g>
    </g>
</svg>