<?xml version="1.0" encoding="UTF-8"?>
<svg width="128px" height="128px" viewBox="0 0 128 128" version="1.1" xmlns="http://www.w3.org/2000/svg" xmlns:xlink="http://www.w3.org/1999/xlink">
    <title>编组 27</title>
    <g id="页面-1" stroke="none" stroke-width="1" fill="none" fill-rule="evenodd">
        <g id="icon" transform="translate(-850.000000, -402.000000)" fill="#AAAAAA">
            <g id="编组-27" transform="translate(802.360390, 402.360390)">
                <path d="M31.6396103,18.6396103 C38.8193121,18.6396103 44.6396103,24.4599086 44.6396103,31.6396103 L44.6396103,82.6396103 L95.6396103,82.6396103 C102.819312,82.6396103 108.63961,88.4599086 108.63961,95.6396103 C108.63961,102.819312 102.819312,108.63961 95.6396103,108.63961 L31.6396103,108.63961 C24.4599086,108.63961 18.6396103,102.819312 18.6396103,95.6396103 L18.6396103,31.6396103 C18.6396103,24.4599086 24.4599086,18.6396103 31.6396103,18.6396103 Z" id="形状结合" transform="translate(63.639610, 63.639610) scale(-1, -1) rotate(45.000000) translate(-63.639610, -63.639610) "></path>
                <path d="M81.6396103,18.6396103 C88.8193121,18.6396103 94.6396103,24.4599086 94.6396103,31.6396103 L94.6396103,82.6396103 L145.63961,82.6396103 C152.819312,82.6396103 158.63961,88.4599086 158.63961,95.6396103 C158.63961,102.819312 152.819312,108.63961 145.63961,108.63961 L81.6396103,108.63961 C74.4599086,108.63961 68.6396103,102.819312 68.6396103,95.6396103 L68.6396103,31.6396103 C68.6396103,24.4599086 74.4599086,18.6396103 81.6396103,18.6396103 Z" id="形状结合" transform="translate(113.639610, 63.639610) scale(-1, -1) rotate(45.000000) translate(-113.639610, -63.639610) "></path>
            </g>
        </g>
    </g>
</svg>