<?xml version="1.0" encoding="UTF-8"?>
<svg width="128px" height="128px" viewBox="0 0 128 128" version="1.1" xmlns="http://www.w3.org/2000/svg" xmlns:xlink="http://www.w3.org/1999/xlink">
    <title>形状结合</title>
    <g id="页面-1" stroke="none" stroke-width="1" fill="none" fill-rule="evenodd">
        <g id="icon" transform="translate(-194.000000, -55.000000)" fill="#FFFFFF">
            <path d="M303,55 C307.418278,55 311,58.581722 311,63 L311,174 C311,178.418278 307.418278,182 303,182 L213,182 C208.581722,182 205,178.418278 205,174 L205,63 C205,58.581722 208.581722,55 213,55 L303,55 Z M264,144 L232,144 C229.238576,144 227,146.238576 227,149 C227,151.761424 229.238576,154 232,154 L232,154 L264,154 C266.761424,154 269,151.761424 269,149 C269,146.238576 266.761424,144 264,144 L264,144 Z M284,114 L232,114 C229.238576,114 227,116.238576 227,119 C227,121.761424 229.238576,124 232,124 L232,124 L284,124 C286.761424,124 289,121.761424 289,119 C289,116.238576 286.761424,114 284,114 L284,114 Z M284,84 L232,84 C229.238576,84 227,86.2385763 227,89 C227,91.7614237 229.238576,94 232,94 L232,94 L284,94 C286.761424,94 289,91.7614237 289,89 C289,86.2385763 286.761424,84 284,84 L284,84 Z" id="形状结合"></path>
        </g>
    </g>
</svg>