<?xml version="1.0" encoding="UTF-8"?>
<svg width="128px" height="128px" viewBox="0 0 128 128" version="1.1" xmlns="http://www.w3.org/2000/svg" xmlns:xlink="http://www.w3.org/1999/xlink">
    <title>形状结合</title>
    <g id="页面-1" stroke="none" stroke-width="1" fill="none" fill-rule="evenodd">
        <g id="icon" transform="translate(-194.000000, -224.000000)" fill="#909090">
            <path d="M303,224 C307.418278,224 311,227.581722 311,232 L311,343 C311,347.418278 307.418278,351 303,351 L213,351 C208.581722,351 205,347.418278 205,343 L205,232 C205,227.581722 208.581722,224 213,224 L303,224 Z M264,313 L232,313 C229.238576,313 227,315.238576 227,318 C227,320.761424 229.238576,323 232,323 L232,323 L264,323 C266.761424,323 269,320.761424 269,318 C269,315.238576 266.761424,313 264,313 L264,313 Z M284,283 L232,283 C229.238576,283 227,285.238576 227,288 C227,290.761424 229.238576,293 232,293 L232,293 L284,293 C286.761424,293 289,290.761424 289,288 C289,285.238576 286.761424,283 284,283 L284,283 Z M284,253 L232,253 C229.238576,253 227,255.238576 227,258 C227,260.761424 229.238576,263 232,263 L232,263 L284,263 C286.761424,263 289,260.761424 289,258 C289,255.238576 286.761424,253 284,253 L284,253 Z" id="形状结合"></path>
        </g>
    </g>
</svg>