<?xml version="1.0" encoding="UTF-8"?>
<svg width="128px" height="128px" viewBox="0 0 128 128" version="1.1" xmlns="http://www.w3.org/2000/svg" xmlns:xlink="http://www.w3.org/1999/xlink">
    <title>形状结合</title>
    <g id="页面-1" stroke="none" stroke-width="1" fill="none" fill-rule="evenodd">
        <g id="icon" transform="translate(-808.000000, -223.000000)" fill="#909090">
            <path d="M928,224 C932.418278,224 936,227.581722 936,232 L936,318 C936,322.418278 932.418278,326 928,326 L864.8,326 L828,350 L824.8,326 L816,326 C811.581722,326 808,322.418278 808,318 L808,232 C808,227.581722 811.581722,224 816,224 L928,224 Z M836,261 C829.372583,261 824,266.372583 824,273 C824,279.627417 829.372583,285 836,285 C842.627417,285 848,279.627417 848,273 C848,266.372583 842.627417,261 836,261 Z M872,261 C865.372583,261 860,266.372583 860,273 C860,279.627417 865.372583,285 872,285 C878.627417,285 884,279.627417 884,273 C884,266.372583 878.627417,261 872,261 Z M908,261 C901.372583,261 896,266.372583 896,273 C896,279.627417 901.372583,285 908,285 C914.627417,285 920,279.627417 920,273 C920,266.372583 914.627417,261 908,261 Z" id="形状结合"></path>
        </g>
    </g>
</svg>